<svg xmlns="http://www.w3.org/2000/svg" xmlns:xlink="http://www.w3.org/1999/xlink" version="1.1" x="0px" y="0px" width="100px" height="100px" viewBox="0 0 100 100" enable-background="new 0 0 100 100" xml:space="preserve">
<g id="Captions">
</g>
<g id="Your_Icon">
	<path d="M99.575,74.421c-0.52-5.19-3.807-18.343-7.267-27.86c-3.461-9.517-11.248-28.205-20.419-30.455   c-9.171-2.249-23.188-1.903-29.589-1.557c-2.786,0.15-4.849,0.628-6.293,1.121c-0.917,0.443-4.535,2.5-5.611,7.806   c-1.055,5.209-1.363,31.808-0.579,49.932c0.001,0.026-0.004,0.051-0.004,0.076c6.124,4.338,11.334,7.887,13.352,8.896   c6.229,3.113,12.804,3.461,23.013,3.286c10.21-0.173,27.34-2.076,30.456-2.769C99.748,82.208,100.095,79.612,99.575,74.421z    M55.105,78.458c-2.835,0-5.134-2.299-5.134-5.133c0-2.836,2.299-5.135,5.134-5.135c2.834,0,5.134,2.299,5.134,5.135   C60.239,76.159,57.939,78.458,55.105,78.458z M45.934,65.25c0,0-3.346-22.207-7.729-33.166c0,0-0.231-3.346,4.441-3.865   c0,0,22.149-1.038,37.029,0.692c0,0,2.366,0.116,3.808,3.115c1.712,3.564,7.094,13.15,11.247,31.667   C94.73,63.692,82.964,66.634,45.934,65.25z M92.25,76.381c-2.389,0-4.326-2.065-4.326-4.614c0-2.547,1.938-4.613,4.326-4.613   s4.326,2.066,4.326,4.613C96.576,74.315,94.639,76.381,92.25,76.381z"/>
	<path d="M0.252,39.293v12.631c0,0,1.264,0.942,3.362,2.496C3.54,48.746,3.75,42.191,3.873,38.363   c0.042-1.305,0.074-2.336,0.081-2.87c0.011-0.865,0.097-1.584,0.224-2.197c-0.331,0.188-0.609,0.346-0.811,0.461   C-0.267,35.833,0.252,39.293,0.252,39.293z"/>
	<path d="M4.991,35.506c-0.007,0.544-0.038,1.529-0.082,2.89c-0.127,4-0.352,10.982-0.245,16.803   c1.652,1.221,3.684,2.721,5.944,4.382c-0.289-10.093,0.208-23.92,0.39-27.162c0.074-1.334,0.285-2.41,0.563-3.274   c-2.416,1.355-4.557,2.558-6.1,3.427C5.214,33.235,5.008,34.179,4.991,35.506z"/>
	<path d="M12.726,32.515c-0.188,3.375-0.72,18.266-0.342,28.368c4.51,3.308,9.714,7.097,14.584,10.577   c-0.698-18.482-0.353-43.262,0.715-48.534c0.263-1.296,0.654-2.435,1.12-3.438c-3.756,2.101-9.281,5.193-14.26,7.984   C14.096,27.836,12.916,29.11,12.726,32.515z"/>
</g>
</svg>